<svg xmlns="http://www.w3.org/2000/svg" viewBox="0 0 82.58 133.82"><defs><style>.cls-1{fill:#fff;}</style></defs><g id="Camada_2" data-name="Camada 2"><g id="Layer_1" data-name="Layer 1"><path class="cls-1" d="M32.79,16.65a13.29,13.29,0,0,1,1.82,13.48c-2.22,4.58-4.52,7.21-4.51,12.52.14,9.3,9,13.35,13.59,13.75-2.56-15.17-3.1-17.31-2.89-36.54C40.84,16.39,40.27,16.36,32.79,16.65Z"/><path class="cls-1" d="M49.1,12.18c-.23-2.42-.26-4.44-.45-5.44-.57-3.88-5.31-5.67-5.31-5.67v11S45.67,12,49.1,12.18Z"/><path class="cls-1" d="M44,17.45c-1.11,20.46,6.16,47.49,9,60.06,1.3,3.31-1.2,4.15-1.51,4.25a10.19,10.19,0,0,1-2.13.36,11.86,11.86,0,0,1-2.92-.34c2.7-1,1.32-5,.06-6.43-1.75-2-3.92-2.58-6.82-2.8a14.64,14.64,0,0,0-7.3,1c-9.68,5-1.23,15.73,11.85,14.38a21,21,0,0,0,9.07-2.67c2.4-1.73,4.14-4.85,3.48-7.49L52.1,58.56l8.13,1.6L49.61,16.21C46,16.28,44.13,15.45,44,17.45Z"/><path class="cls-1" d="M22.48,12.34c2.23-.89,5.22-.35,11.28-.27,4.08.06,2.37,0,6.85.19,0-5.75,0-10,0-11.58A.7.7,0,0,0,39.87,0C32.35,0,28,2.38,21.66,11.29A.7.7,0,0,0,22.48,12.34Z"/><polygon class="cls-1" points="4.13 101.93 0 133.82 7.85 133.69 11.98 101.81 4.13 101.93"/><path class="cls-1" d="M33.26,116.41a10.6,10.6,0,0,0-2.1-1.44,13.3,13.3,0,0,0-1.94-.84l-2.17-.49c-.53-.18-2.41.08-3.23-1.88a3.52,3.52,0,0,1,.05-2.38c.48-1.26,1.61-1.79,3.37-1.74a3.74,3.74,0,0,1,2.53,1.21,6.28,6.28,0,0,1,1,2.25l7.27-1.78a11.84,11.84,0,0,0-4.8-6c-2.1-1.34-5.05-1.56-8-1.52-3.82.06-6,1.08-7.86,3s-5.48,8.1-.4,12.81c1,.59,5.35,2.59,8.07,2.83a3.74,3.74,0,0,1,2,1.13,3.6,3.6,0,0,1,.63,1.75,3.06,3.06,0,0,1-.21,1.32,2.75,2.75,0,0,1-1.11,1.43,4.78,4.78,0,0,1-2.58.45c-2.22-.18-3.69-1.25-5.58-3l-7.18,1.59a11.23,11.23,0,0,0,5,6.39,15.48,15.48,0,0,0,8.21,2A12.41,12.41,0,0,0,33,130.33a10.06,10.06,0,0,0,3.17-7.75,8.68,8.68,0,0,0-.71-3.33A7.86,7.86,0,0,0,33.26,116.41Z"/><path class="cls-1" d="M60.09,106.25l.54-4.35H45.18l-4.33,16,2.37,1.58a9,9,0,0,1,5.08-1.74,4.87,4.87,0,0,1,5.1,4.68,5.82,5.82,0,0,1-5.13,6.78c-2.4.33-5.05-.68-5.7-3.54l-4.5,1.07c1.36,4.5,4.41,7.09,8.87,7a11.21,11.21,0,0,0,11.13-11.21c-.08-4.89-3.7-8.77-8.24-8.7A9.48,9.48,0,0,0,46,115.22l2.55-8.78Z"/><path class="cls-1" d="M82.58,102l-15.71,0-.55,4.44,10.17-.16-8.17,8.85.93,2.46a4.9,4.9,0,0,1,5.68,5.06c0,3.23-2.23,6.35-5.24,6.39a4.76,4.76,0,0,1-5.2-4.13l-4.35.92c1.21,4.94,4.66,7.74,9.35,7.67a10.44,10.44,0,0,0,10.34-10.7,7.82,7.82,0,0,0-5.43-7.74L82,105.91Z"/></g></g></svg>